<svg version="1.0" xmlns="http://www.w3.org/2000/svg"
 width="200.000000pt" height="101.000000pt" viewBox="0 0 900.000000 513.000000"
 preserveAspectRatio="xMidYMid meet">
<metadata>
Created by potrace 1.10, written by Peter Selinger 2001-2011
</metadata>
<g transform="translate(0.000000,513.000000) scale(0.100000,-0.100000)"
fill="#6987ce" stroke="none">
<path d="M5915 4750 c-27 -5 -99 -15 -160 -23 -60 -8 -117 -17 -125 -20 -35
-11 -130 -37 -190 -52 -36 -9 -78 -22 -95 -29 -16 -7 -50 -21 -75 -31 -25 -10
-73 -31 -108 -47 -34 -15 -66 -28 -71 -28 -5 0 -15 -7 -22 -16 -8 -9 -43 -30
-78 -47 -35 -16 -88 -48 -117 -71 -29 -22 -79 -58 -111 -78 -95 -62 -132 -95
-283 -256 -222 -236 -346 -418 -430 -631 -11 -30 -31 -77 -44 -105 -45 -99
-56 -127 -56 -144 0 -9 -6 -37 -14 -62 -66 -209 -88 -360 -91 -600 -1 -95 -6
-143 -16 -161 -8 -15 -25 -46 -38 -70 -30 -56 -70 -99 -93 -99 -20 0 -32 20
-42 69 -11 58 -55 141 -74 141 -21 0 -137 -126 -185 -202 -36 -56 -52 -68 -88
-68 -18 0 -19 8 -19 115 0 108 -1 115 -22 126 -18 10 -24 9 -31 -2 -4 -8 -21
-36 -38 -64 -16 -27 -49 -77 -74 -110 -24 -33 -44 -65 -44 -71 -1 -17 -39 -47
-50 -39 -6 3 -11 13 -11 20 0 31 -34 82 -77 115 -38 28 -54 35 -88 33 -68 -2
-153 -57 -198 -126 -17 -27 -18 -27 -132 -27 -65 0 -116 -4 -120 -10 -3 -5
-26 -10 -51 -10 -25 0 -58 -7 -73 -15 -26 -13 -30 -13 -46 5 -9 10 -15 22 -12
27 3 5 8 161 11 348 3 187 11 427 17 534 10 174 9 195 -5 210 -34 33 -63 -23
-95 -184 -4 -22 -19 -76 -34 -120 -28 -88 -41 -136 -62 -235 -16 -77 -51 -213
-66 -255 -6 -16 -17 -59 -24 -95 -33 -162 -56 -230 -75 -230 -13 0 -13 96 0
140 6 19 15 118 20 220 5 102 15 203 21 226 10 32 9 53 -2 103 -7 34 -17 67
-20 73 -10 16 -44 0 -113 -52 -29 -22 -59 -40 -66 -40 -7 0 -35 -13 -62 -30
-26 -16 -51 -30 -53 -30 -10 0 -239 -91 -275 -108 -8 -5 -49 -19 -90 -32 -41
-13 -89 -29 -107 -37 -17 -7 -40 -13 -50 -13 -10 0 -23 -4 -28 -9 -6 -4 -44
-18 -85 -31 -41 -12 -102 -33 -135 -46 -33 -13 -70 -24 -82 -24 -33 0 -70 -17
-77 -35 -8 -21 39 -65 70 -65 14 0 25 8 29 21 4 11 19 25 33 31 15 6 36 14 47
18 42 17 159 50 177 50 10 0 26 4 36 10 26 14 80 36 152 60 36 12 73 26 84 32
10 5 50 20 90 33 141 46 327 131 399 182 51 35 66 40 68 21 4 -34 -4 -108 -16
-153 -8 -29 -17 -139 -21 -260 -6 -177 -10 -305 -13 -362 -1 -8 -14 -13 -32
-13 -28 0 -107 -21 -154 -40 -11 -5 -45 -14 -75 -20 -30 -7 -70 -21 -88 -31
-18 -10 -42 -19 -53 -19 -11 0 -37 -10 -58 -22 -46 -26 -75 -20 -62 14 9 22
33 172 52 333 15 129 28 220 34 256 6 32 4 38 -14 44 -29 9 -38 1 -44 -37 -3
-18 -12 -76 -20 -128 -8 -52 -20 -142 -27 -200 -7 -58 -17 -113 -22 -123 -5
-10 -11 -55 -13 -100 -2 -45 -4 -85 -5 -89 0 -12 -57 -38 -80 -38 -12 0 -34
-6 -48 -14 -54 -28 -257 -120 -325 -147 -26 -10 -60 -19 -76 -19 -33 0 -64
-30 -59 -57 6 -28 71 -21 153 16 114 53 133 61 139 61 6 0 171 76 229 106 31
15 57 18 57 7 0 -5 -5 -66 -10 -137 -7 -92 -6 -133 1 -143 15 -18 26 -16 49 7
18 18 20 33 20 153 0 128 1 133 25 160 18 19 36 27 60 27 19 0 37 5 40 10 3 5
17 10 29 10 13 0 43 7 67 16 24 9 58 20 74 24 17 5 50 16 75 25 65 24 143 44
152 39 13 -8 9 -49 -6 -79 -13 -24 -13 -31 1 -51 34 -52 73 -14 73 72 0 32 4
65 8 71 10 16 97 43 137 43 17 0 35 4 41 10 5 5 29 10 54 12 l45 3 -2 -45
c-14 -263 -19 -337 -26 -348 -12 -19 2 -52 23 -52 30 0 55 49 55 110 1 30 3
105 4 165 2 61 0 123 -4 138 -11 41 17 67 71 67 24 0 53 4 66 9 36 14 205 33
228 26 24 -8 27 -50 5 -82 -19 -27 -29 -103 -16 -122 14 -21 59 1 65 31 28
148 41 184 81 226 38 42 120 92 148 92 22 0 81 -49 99 -83 10 -19 17 -55 18
-89 0 -72 13 -108 39 -108 26 0 33 13 48 83 9 43 19 64 42 83 17 14 31 34 31
44 0 18 66 100 81 100 5 0 9 -13 9 -28 0 -55 30 -132 55 -144 21 -9 31 -7 65
17 42 29 57 45 120 129 103 137 110 138 140 19 11 -45 59 -103 85 -103 16 0
106 86 136 130 23 35 39 17 39 -45 0 -52 11 -123 30 -195 5 -19 17 -66 26
-105 9 -38 22 -82 30 -97 8 -15 14 -35 14 -45 0 -10 22 -63 49 -119 27 -55 52
-115 56 -132 3 -18 22 -54 41 -82 19 -27 34 -53 34 -58 0 -5 23 -41 50 -81 28
-40 50 -75 50 -78 0 -3 15 -22 33 -43 17 -20 64 -76 102 -124 74 -92 229 -256
280 -294 237 -181 384 -265 628 -361 67 -27 163 -58 212 -70 50 -12 106 -26
125 -32 63 -18 134 -31 215 -39 117 -12 473 -11 520 1 22 6 67 15 100 21 33 5
76 14 95 19 19 5 76 18 125 30 50 11 106 26 125 34 247 96 255 100 395 176 58
32 178 110 190 123 6 7 46 39 90 71 161 121 340 318 482 530 86 128 273 482
273 518 0 6 6 23 13 37 8 15 17 47 20 73 4 26 11 55 16 64 16 30 32 103 46
203 7 52 18 129 24 171 14 104 5 420 -15 477 -7 23 -14 60 -14 81 0 37 -3 50
-53 206 -14 44 -29 98 -33 120 -3 22 -21 72 -39 110 -18 39 -40 86 -49 105
-46 103 -180 336 -216 375 -15 17 -40 50 -55 74 -27 45 -144 180 -226 262 -81
82 -459 358 -491 359 -9 0 -29 11 -45 24 -15 13 -39 27 -53 31 -14 4 -47 18
-75 30 -91 42 -169 72 -245 95 -41 12 -93 28 -115 35 -158 51 -578 89 -720 65z
m509 -97 c26 -8 78 -18 115 -23 36 -4 125 -29 196 -55 72 -26 141 -49 155 -52
14 -3 36 -14 49 -24 13 -11 28 -19 33 -19 10 0 113 -45 138 -60 8 -5 36 -21
62 -34 27 -14 82 -50 123 -81 41 -30 78 -55 81 -55 17 0 324 -266 324 -281 0
-5 31 -43 68 -86 37 -43 85 -105 107 -138 21 -33 42 -62 46 -65 4 -3 24 -36
44 -75 21 -38 43 -77 50 -85 22 -28 105 -203 105 -223 0 -11 9 -34 19 -51 11
-17 25 -51 32 -76 7 -25 16 -49 20 -55 4 -5 10 -34 14 -62 4 -29 11 -55 15
-58 5 -3 13 -38 20 -78 6 -39 16 -92 22 -117 17 -77 30 -210 33 -331 3 -113 0
-138 -31 -304 -8 -44 -18 -109 -23 -145 -5 -36 -16 -78 -25 -95 -9 -16 -16
-41 -16 -55 0 -14 -12 -50 -26 -80 -14 -30 -32 -68 -39 -85 -13 -31 -92 -198
-128 -270 -20 -40 -106 -175 -118 -185 -3 -3 -12 -16 -18 -28 -7 -13 -43 -58
-80 -101 -38 -42 -75 -90 -84 -106 -16 -31 -56 -71 -197 -195 -110 -97 -154
-130 -215 -164 -27 -15 -59 -36 -70 -45 -46 -40 -157 -100 -263 -143 -80 -32
-283 -101 -322 -108 -25 -5 -72 -16 -105 -24 -32 -9 -70 -16 -83 -16 -13 0
-49 -7 -79 -16 -45 -13 -95 -15 -296 -12 -273 5 -415 25 -567 80 -47 16 -107
36 -135 43 -27 6 -75 24 -105 38 -143 66 -211 101 -281 145 -42 26 -91 56
-109 67 -18 11 -44 29 -59 41 -14 12 -36 26 -49 33 -12 7 -46 34 -75 60 -99
91 -112 103 -129 115 -9 7 -33 36 -53 66 -20 30 -62 82 -93 115 -57 60 -112
128 -112 140 0 3 -11 18 -26 33 -14 15 -41 59 -60 97 -20 39 -42 77 -50 86 -8
8 -14 23 -14 31 0 18 -31 86 -66 143 -13 22 -24 48 -24 57 0 10 -7 34 -16 55
-9 21 -21 47 -25 58 -5 11 -15 49 -24 85 -8 36 -23 97 -34 135 -10 39 -22 103
-26 143 -3 40 -13 89 -22 109 -30 74 6 183 62 183 28 0 55 -56 55 -114 0 -27
9 -59 25 -87 14 -24 28 -51 31 -59 4 -8 23 -29 42 -46 41 -36 39 -59 -7 -75
-30 -11 -48 -40 -36 -59 10 -16 54 -12 87 8 29 17 30 17 49 -7 10 -13 19 -35
19 -50 0 -53 55 -73 65 -23 13 58 34 92 58 92 13 0 38 5 56 11 50 17 39 48
-24 68 -40 13 -49 20 -47 36 5 30 14 35 70 42 35 4 61 14 77 29 63 58 90 54
80 -12 -4 -30 -1 -52 9 -73 9 -16 16 -41 16 -55 0 -27 15 -66 62 -157 15 -31
28 -64 28 -73 0 -25 140 -250 205 -329 169 -203 345 -332 605 -443 107 -46
162 -64 223 -74 28 -5 72 -14 97 -21 104 -26 356 -27 525 0 66 10 212 53 262
76 17 8 36 15 42 15 26 0 232 109 298 157 39 29 75 53 80 53 4 0 39 30 76 65
38 36 76 71 85 77 10 7 33 33 52 58 19 25 51 65 72 90 52 62 198 339 198 375
0 8 5 17 10 20 11 7 32 53 55 120 8 23 18 77 23 121 5 44 14 90 21 102 18 33
15 343 -4 368 -9 11 -14 42 -15 78 0 51 -34 179 -70 261 -5 11 -11 34 -15 50
-10 45 -95 210 -149 290 -26 39 -73 99 -104 135 -31 36 -61 71 -67 78 -56 76
-298 255 -379 282 -57 19 -58 69 -2 70 26 0 66 39 66 64 1 12 12 39 25 61 13
22 33 58 45 80 12 22 28 44 36 48 8 4 14 23 14 42 0 29 -4 35 -22 35 -12 0
-38 11 -59 25 -20 14 -52 28 -70 31 -75 12 -163 -81 -159 -168 4 -62 2 -68
-20 -68 -23 0 -43 -34 -35 -59 10 -31 41 -61 64 -61 23 0 27 10 10 27 -18 18
-7 58 18 61 24 4 73 -24 73 -41 0 -17 -64 -73 -92 -80 -17 -5 -30 -2 -38 8 -7
8 -21 15 -32 15 -11 0 -34 6 -51 14 -70 30 -136 48 -212 57 -44 5 -93 13 -109
19 -48 17 -360 13 -403 -5 -19 -8 -63 -15 -97 -15 -34 -1 -72 -7 -86 -15 -14
-8 -33 -14 -43 -15 -10 0 -44 -13 -75 -28 -31 -15 -84 -36 -117 -47 -54 -16
-105 -45 -243 -136 -24 -16 -48 -29 -53 -29 -15 0 -260 -251 -294 -301 -17
-24 -33 -46 -38 -47 -14 -7 -75 -107 -86 -144 -7 -20 -19 -42 -27 -48 -7 -7
-14 -20 -14 -29 0 -9 -7 -29 -16 -46 -25 -47 -74 -191 -74 -217 0 -13 -7 -36
-16 -53 -24 -46 -43 -226 -29 -281 3 -15 -7 -35 -33 -65 -70 -83 -111 -169
-105 -221 4 -30 1 -38 -18 -48 -19 -11 -24 -9 -38 9 l-16 21 -40 -40 c-46 -47
-80 -52 -97 -15 -8 18 -19 25 -38 25 -39 0 -79 46 -85 100 -9 68 -3 71 96 60
185 -20 178 -20 212 10 31 27 31 28 30 126 0 55 -3 109 -7 121 -18 55 -130 83
-176 43 -29 -25 -34 -25 -70 1 -35 27 -66 21 -116 -23 -34 -30 -36 -34 -32
-86 2 -41 -1 -56 -12 -62 -8 -3 -33 -16 -56 -28 -22 -11 -45 -17 -51 -14 -10
7 -6 51 18 202 6 36 11 74 11 85 0 31 18 157 27 185 5 14 16 52 26 85 9 33 23
72 31 87 8 14 14 37 14 50 1 12 7 34 15 48 8 14 14 34 15 45 0 33 158 342 224
440 34 50 89 119 124 154 34 36 78 88 97 116 19 29 50 64 70 79 19 15 57 49
84 75 26 27 67 61 90 75 23 15 67 46 99 69 31 24 86 60 122 81 36 20 72 41 80
47 49 30 152 79 167 79 10 0 38 11 61 25 51 29 197 82 262 95 281 57 295 59
565 58 193 -1 272 -5 309 -15z m480 -445 c23 -38 -36 -138 -81 -138 -24 0 -73
40 -73 60 0 21 30 69 52 85 29 20 87 16 102 -7z m-512 -281 c53 -8 103 -19
110 -23 16 -11 72 -32 113 -44 64 -18 118 -42 153 -65 20 -14 41 -25 45 -25
19 0 175 -110 229 -161 31 -30 70 -64 87 -77 17 -13 31 -30 31 -37 0 -8 8 -19
19 -24 27 -15 153 -186 188 -256 17 -33 38 -73 47 -90 9 -16 16 -38 16 -47 0
-9 4 -19 9 -22 5 -3 19 -39 31 -78 12 -40 28 -80 35 -88 7 -8 15 -49 18 -90 3
-41 12 -98 20 -126 18 -62 17 -347 -2 -381 -6 -12 -14 -57 -17 -100 -4 -43
-12 -87 -18 -98 -7 -11 -20 -43 -29 -72 -10 -29 -28 -69 -42 -89 -14 -20 -29
-54 -35 -74 -6 -20 -21 -54 -35 -74 -14 -20 -25 -38 -25 -40 0 -2 -15 -29 -34
-60 -83 -137 -306 -357 -436 -428 -27 -15 -68 -41 -91 -58 -23 -16 -47 -30
-53 -30 -6 0 -24 -7 -41 -16 -16 -8 -48 -19 -70 -24 -22 -4 -65 -17 -95 -28
-70 -24 -143 -42 -176 -42 -14 0 -34 -5 -44 -10 -11 -6 -98 -10 -197 -11 -173
0 -298 15 -408 50 -16 5 -57 17 -90 26 -79 22 -185 74 -229 112 -24 21 -90 53
-110 53 -7 0 -43 28 -79 63 -36 34 -77 70 -91 80 -14 10 -50 48 -80 85 -30 37
-77 91 -105 120 -28 29 -51 61 -51 71 0 10 -8 29 -19 42 -30 40 -81 134 -81
153 0 9 -13 43 -30 74 -16 31 -34 80 -40 107 -18 77 -52 189 -62 202 -13 17
15 76 44 91 22 12 31 11 78 -13 44 -22 62 -26 114 -22 33 2 87 11 119 19 33 9
76 14 97 11 51 -7 122 32 191 104 50 52 54 54 88 47 87 -20 162 5 238 78 45
44 73 46 73 4 0 -36 17 -76 33 -76 31 0 66 44 121 153 57 114 94 163 116 155
7 -2 24 -33 39 -68 27 -62 29 -64 77 -77 68 -18 115 -8 226 48 25 13 55 11 78
-3 16 -10 25 -9 52 6 44 25 85 64 110 104 23 38 32 40 56 10 9 -13 41 -47 71
-76 50 -49 57 -53 95 -50 37 3 45 8 88 67 27 35 53 81 58 102 6 20 17 50 25
66 8 15 15 51 15 80 0 42 -4 55 -22 67 -45 32 -111 8 -72 -25 33 -28 35 -46 8
-127 -26 -82 -81 -162 -110 -162 -8 0 -53 38 -100 85 l-85 86 23 47 c16 33 23
65 23 107 0 59 0 60 -30 63 -25 2 -41 -9 -100 -65 -88 -85 -123 -143 -134
-224 -10 -72 -19 -82 -127 -127 -66 -27 -76 -29 -108 -18 -36 13 -83 66 -116
130 -22 45 -55 46 -91 4 -38 -44 -109 -163 -109 -182 0 -20 -38 -46 -57 -39
-24 9 -11 69 35 164 43 89 68 153 82 208 5 18 13 38 19 44 6 6 11 24 11 40 0
16 7 53 16 83 8 29 14 73 12 96 -7 93 -71 43 -146 -112 -33 -71 -82 -282 -89
-390 -4 -56 -9 -69 -36 -98 -66 -70 -159 -122 -217 -122 -49 0 -58 15 -41 68
20 64 32 170 40 367 7 165 6 192 -7 208 -27 30 -55 17 -69 -32 -7 -24 -16 -48
-21 -55 -22 -28 -73 -212 -72 -255 4 -69 4 -68 -53 -97 -40 -19 -63 -39 -89
-78 -47 -69 -81 -180 -72 -233 l6 -41 -48 -5 c-27 -3 -68 -11 -91 -18 -49 -15
-105 -3 -142 32 -19 18 -22 28 -17 68 9 63 -2 76 -60 73 -59 -2 -66 2 -48 36
7 15 14 47 14 71 0 52 17 122 74 306 25 82 81 211 96 220 5 3 11 18 15 33 3
15 27 54 53 86 26 32 52 67 58 77 14 25 86 100 176 185 96 91 204 163 315 210
48 21 106 49 127 62 21 13 63 27 92 31 29 4 60 14 69 21 10 8 51 15 101 18 46
3 87 9 90 14 9 14 375 3 486 -15z m-577 -834 c-4 -21 -16 -58 -28 -83 l-22
-45 -3 34 c-2 18 1 38 7 44 6 6 11 23 11 37 0 26 16 50 33 50 5 0 6 -16 2 -37z
m717 -53 c-2 -19 -16 -53 -31 -75 -15 -22 -30 -48 -34 -57 -8 -23 -54 -51 -72
-44 -8 3 -15 16 -15 28 0 24 11 41 85 137 46 60 72 64 67 11z m-1176 -157 c-4
-91 -9 -103 -37 -103 -17 0 -19 7 -19 74 0 54 6 87 22 122 l21 49 9 -30 c5
-16 7 -67 4 -112z m-3171 -63 c4 -17 3 -54 -1 -83 -4 -29 -10 -197 -13 -375
l-6 -323 -55 -19 c-30 -11 -63 -19 -72 -20 -9 0 -30 -8 -46 -17 -41 -24 -64
-6 -51 39 5 18 13 36 19 42 5 5 10 20 10 33 0 12 6 37 14 55 8 18 22 67 31
108 10 41 24 87 31 102 8 15 14 41 14 58 0 18 6 46 14 63 14 31 32 108 61 262
21 111 37 134 50 75z m3069 -96 c11 -4 16 -19 16 -50 0 -25 7 -56 16 -69 15
-23 14 -25 -25 -68 -22 -24 -65 -56 -96 -72 -52 -26 -57 -27 -73 -12 -14 15
-14 23 -3 69 18 70 44 120 88 168 35 40 48 45 77 34z m-900 -122 c10 -22 16
-55 14 -78 -3 -34 -6 -39 -30 -42 -38 -5 -88 24 -90 51 -4 64 21 107 62 107
22 0 30 -7 44 -38z m-182 16 c9 -7 19 -34 22 -59 9 -59 -10 -81 -63 -77 l-36
3 0 63 c0 45 5 66 15 72 21 13 43 12 62 -2z m509 -108 c10 -6 19 -17 19 -24 0
-23 -35 -58 -70 -70 -22 -7 -40 -23 -53 -46 -40 -73 -99 -113 -113 -76 -3 7
11 43 31 80 28 49 42 66 58 66 12 0 37 17 58 40 40 44 42 45 70 30z m-354
-405 c2 -6 -8 -23 -22 -38 -25 -26 -27 -26 -55 -12 -17 9 -30 19 -30 23 0 10
71 41 89 39 8 -1 16 -7 18 -12z"/>
<path d="M6045 4560 c-3 -11 -3 -29 0 -40 4 -12 2 -27 -4 -34 -6 -7 -14 -76
-18 -153 -6 -141 -6 -141 18 -156 16 -10 66 -19 144 -25 112 -8 121 -8 140 10
20 19 20 19 -4 39 -19 16 -39 19 -112 19 -99 0 -113 10 -107 73 l3 32 107 -3
c101 -3 107 -2 113 18 4 14 1 28 -11 41 -14 16 -31 19 -94 19 -92 0 -113 11
-108 60 l3 35 63 -2 c34 -1 78 -7 97 -13 46 -15 75 0 75 39 0 36 -13 41 -100
41 -38 0 -72 5 -75 10 -3 6 -33 10 -65 10 -50 0 -60 -3 -65 -20z"/>
<path d="M5528 4498 c-27 -22 -26 -40 9 -136 38 -107 46 -199 16 -187 -21 8
-22 8 -45 6 -9 0 -20 -11 -24 -23 -18 -61 -64 -74 -113 -33 -37 32 -45 54 -31
90 19 50 65 70 90 40 16 -19 54 -19 69 -1 26 31 -35 86 -94 86 -31 0 -95 -39
-124 -76 -24 -30 -23 -69 5 -147 25 -70 101 -109 170 -87 46 15 84 47 84 71 0
9 6 22 14 28 11 9 18 6 35 -14 40 -51 84 -13 62 53 -13 39 -9 62 10 62 5 0 31
-23 57 -51 36 -38 56 -51 76 -51 26 0 45 15 46 35 0 11 -49 55 -92 83 -47 30
-49 58 -8 104 17 18 30 44 30 57 0 21 -4 24 -32 21 -25 -2 -40 -13 -63 -45
-50 -69 -75 -55 -75 41 0 39 -5 57 -18 69 -22 20 -33 21 -54 5z"/>
<path d="M6434 4403 c-15 -63 -33 -130 -44 -159 -6 -18 -10 -52 -8 -75 3 -39
6 -44 30 -47 32 -4 43 13 51 80 7 51 42 127 63 135 8 3 25 2 39 -1 35 -9 41
-45 17 -98 -46 -104 -34 -181 23 -144 16 11 25 26 25 43 0 30 16 85 36 125 22
42 17 71 -19 106 -24 23 -42 32 -67 32 -19 0 -48 7 -64 15 -46 24 -75 20 -82
-12z"/>
<path d="M7124 4276 c-11 -30 1 -61 24 -64 32 -5 54 16 46 42 -11 36 -59 51
-70 22z"/>
<path d="M5113 4207 c-34 -15 -28 -45 20 -118 67 -99 68 -149 2 -149 -21 0
-58 41 -85 93 -12 23 -29 50 -38 60 -19 21 -55 22 -72 2 -11 -13 -10 -21 8
-44 11 -15 39 -56 63 -90 75 -109 135 -131 185 -66 19 26 34 35 55 35 39 0 53
27 33 66 -8 16 -21 34 -28 39 -16 13 -40 57 -65 117 -23 54 -46 70 -78 55z"/>
<path d="M7044 4128 c-16 -34 -44 -79 -62 -101 -40 -48 -50 -83 -29 -104 23
-24 50 -7 71 43 11 26 31 61 46 78 50 59 65 92 61 134 0 6 -14 12 -29 12 -25
0 -32 -8 -58 -62z"/>
<path d="M7126 3996 c-85 -103 -98 -130 -74 -154 22 -22 45 -12 73 31 44 66
107 127 130 127 23 0 55 -28 55 -47 0 -6 -27 -44 -60 -83 -67 -80 -79 -123
-37 -134 15 -4 26 0 37 15 8 11 39 48 68 82 30 34 57 71 61 82 17 41 -27 124
-66 125 -7 0 -28 14 -46 30 -19 17 -39 30 -45 30 -6 0 -49 -47 -96 -104z"/>
<path d="M4768 3950 c-38 -36 -51 -37 -90 -5 -38 33 -66 32 -74 0 -5 -22 3
-36 52 -88 151 -162 197 -207 210 -207 21 0 98 60 123 95 17 26 19 38 13 80
-10 61 -16 72 -68 118 -35 31 -49 37 -88 37 -38 0 -52 -5 -78 -30z m131 -82
c38 -51 39 -82 6 -104 -29 -19 -49 -14 -104 26 -46 34 -50 50 -20 91 15 22 28
29 54 29 28 0 39 -7 64 -42z"/>
<path d="M7440 3833 c-29 -6 -76 -37 -107 -73 -18 -20 -22 -37 -22 -85 0 -69
13 -92 77 -124 56 -29 83 -27 117 9 16 17 36 30 45 30 24 0 58 51 60 91 5 68
1 78 -51 119 -49 38 -64 43 -119 33z m84 -84 c28 -22 31 -35 16 -59 -7 -12
-12 -11 -30 5 -28 25 -43 53 -35 65 9 15 19 12 49 -11z m-69 -60 c49 -43 46
-74 -7 -73 -42 1 -66 17 -79 52 -11 29 4 52 32 52 10 0 34 -14 54 -31z"/>
<path d="M4559 3749 c-8 -16 -8 -28 0 -46 15 -34 14 -73 -4 -79 -9 -4 -36 12
-67 40 -57 50 -82 57 -98 27 -14 -28 -6 -42 52 -81 29 -19 90 -68 135 -107 80
-70 102 -80 137 -67 33 13 13 41 -50 74 -17 9 -29 24 -29 35 0 21 3 22 128 13
39 -2 51 1 63 16 8 11 14 23 14 28 0 17 -49 32 -110 34 -36 1 -71 2 -77 3 -9
1 -13 19 -13 54 0 29 -5 58 -12 65 -19 19 -56 14 -69 -9z"/>
<path d="M7567 3523 c-38 -31 -48 -46 -53 -79 -13 -87 19 -146 88 -164 28 -8
44 -7 65 3 16 7 47 19 70 27 79 24 105 96 64 174 -29 56 -64 76 -132 76 -50 0
-61 -4 -102 -37z m172 -59 c12 -15 21 -32 21 -38 0 -18 -21 -35 -36 -29 -19 7
-57 71 -49 83 11 18 43 10 64 -16z m-84 -51 c30 -45 31 -60 5 -68 -48 -15
-110 53 -80 89 21 26 48 18 75 -21z"/>
<path d="M4382 3473 c-43 -42 -67 -109 -52 -147 18 -43 76 -94 132 -116 64
-25 73 -22 138 36 48 43 60 95 35 149 -21 42 -29 48 -54 40 -26 -8 -31 -33
-14 -68 17 -33 5 -60 -36 -81 -26 -14 -31 -13 -79 15 -29 16 -52 36 -52 44 0
33 26 65 67 85 38 18 43 24 37 43 -16 51 -69 51 -122 0z"/>
<path d="M7760 3243 c-125 -42 -130 -44 -136 -69 -7 -27 10 -54 33 -54 8 0 36
11 62 24 26 13 68 26 93 30 44 7 48 5 64 -21 26 -42 45 -55 61 -42 7 6 13 20
13 31 0 24 -39 110 -54 120 -19 13 -58 7 -136 -19z"/>
<path d="M4264 3172 c-22 -15 -64 -100 -64 -131 0 -34 15 -71 34 -83 6 -4 28
-8 48 -8 23 0 44 -7 55 -19 42 -43 70 -54 107 -41 28 9 40 21 56 57 11 25 20
61 20 79 0 19 6 43 12 54 17 26 1 41 -60 57 -26 6 -65 18 -87 27 -43 16 -103
20 -121 8z m79 -121 c-3 -65 -48 -84 -67 -29 -15 42 6 80 42 76 25 -3 27 -6
25 -47z m95 3 c27 -19 28 -55 2 -79 -27 -25 -50 -5 -50 45 0 53 10 61 48 34z"/>
<path d="M7859 3051 c-24 -25 -29 -38 -29 -78 0 -60 -20 -93 -47 -77 -24 15
-28 57 -8 88 24 36 16 70 -17 74 -40 5 -58 -29 -58 -109 0 -61 3 -69 33 -103
27 -29 41 -36 69 -36 43 0 78 36 78 79 0 51 20 101 40 101 26 0 34 -33 16 -68
-20 -39 -2 -68 37 -58 57 14 55 133 -2 177 -14 10 -31 23 -38 29 -21 17 -43
11 -74 -19z"/>
<path d="M4057 2902 c-22 -24 -21 -37 3 -60 16 -14 43 -21 106 -26 46 -4 105
-13 131 -21 77 -23 154 -30 164 -14 12 19 11 25 -7 43 -8 9 -31 16 -50 16 -34
0 -163 32 -186 46 -7 4 -30 11 -53 15 -22 5 -51 11 -65 14 -18 5 -31 1 -43
-13z"/>
<path d="M7782 2607 c-27 -12 -39 -51 -22 -71 16 -20 59 -28 95 -18 17 5 40 5
54 1 19 -8 22 -14 17 -37 -20 -86 -19 -101 7 -136 26 -34 98 -76 130 -76 9 0
32 7 51 16 30 15 36 24 50 83 22 89 21 163 -1 183 -20 17 -40 22 -203 43 -63
8 -124 17 -135 19 -11 2 -30 -1 -43 -7z m328 -112 c11 -13 11 -26 1 -67 -6
-28 -16 -57 -22 -65 -15 -18 -50 -16 -77 3 -19 13 -22 24 -22 80 l0 64 54 0
c36 0 58 -5 66 -15z"/>
<path d="M7895 2209 c-117 -11 -158 -23 -174 -53 -18 -33 -3 -57 56 -86 26
-13 75 -40 108 -60 95 -57 125 -61 125 -15 0 23 -41 65 -63 65 -5 0 -25 10
-44 21 -30 19 -33 23 -20 36 8 8 43 17 78 20 67 6 79 14 79 49 0 21 -19 35
-43 33 -7 -1 -52 -5 -102 -10z"/>
<path d="M7683 1960 c-37 -22 -52 -62 -32 -86 12 -14 9 -20 -19 -44 -34 -28
-41 -60 -18 -80 22 -17 56 -8 78 21 16 21 17 30 8 51 -15 32 1 68 30 68 16 0
68 -20 130 -50 8 -4 17 -20 20 -36 5 -25 9 -29 35 -26 17 2 48 4 71 6 79 5 86
36 20 90 -32 26 -54 36 -79 36 -19 0 -48 7 -63 15 -16 8 -37 15 -47 15 -11 0
-30 9 -44 20 -32 25 -50 25 -90 0z"/>
<path d="M4480 1876 c-30 -19 -66 -40 -80 -47 -65 -30 -92 -39 -114 -39 -12 0
-33 -11 -46 -25 -22 -23 -22 -25 -5 -51 21 -32 53 -29 115 12 22 14 45 24 53
21 19 -7 78 -124 71 -142 -4 -8 -18 -18 -33 -21 -77 -17 -111 -38 -111 -68 0
-50 42 -59 98 -21 20 14 42 25 48 25 6 0 21 9 34 20 28 24 70 27 70 4 0 -8
-13 -34 -28 -57 -16 -23 -34 -56 -41 -74 -7 -17 -23 -41 -36 -53 -24 -23 -33
-23 -107 -5 -20 6 -29 2 -37 -14 -27 -50 44 -91 121 -70 24 6 57 17 73 24 73
31 138 47 170 42 28 -5 36 -1 50 19 32 49 -29 72 -100 38 -73 -34 -96 3 -40
65 37 41 43 62 30 113 -6 21 -3 27 13 32 11 4 28 16 38 27 17 19 17 20 -5 42
l-22 22 -49 -27 c-66 -37 -87 -36 -95 2 -4 16 -17 46 -31 65 -13 20 -22 40
-19 44 2 5 26 16 52 26 63 24 85 43 81 74 -5 41 -51 39 -118 -3z"/>
<path d="M7462 1550 c-11 -11 -28 -34 -37 -52 -8 -18 -31 -50 -50 -71 -40 -44
-45 -74 -12 -86 31 -12 37 -8 84 59 25 35 50 60 61 60 9 0 39 -20 66 -45 27
-25 54 -45 61 -45 6 0 31 -20 55 -45 53 -54 93 -61 113 -18 11 24 9 28 -28 57
-21 17 -74 63 -118 101 -127 112 -153 124 -195 85z"/>
<path d="M4667 1265 c-51 -49 -57 -59 -57 -95 0 -34 8 -48 52 -97 28 -32 58
-62 65 -66 21 -13 52 2 68 32 8 16 26 36 42 46 38 26 167 147 174 165 16 38
-45 55 -76 20 -25 -28 -37 -25 -74 15 -28 31 -37 35 -84 35 -49 0 -55 -3 -110
-55z m157 -26 c34 -27 33 -42 -5 -84 -36 -40 -75 -56 -107 -44 -56 21 -29 109
43 139 31 13 40 12 69 -11z"/>
<path d="M7243 1299 c-52 -33 -40 -67 25 -76 28 -4 54 -18 88 -47 40 -36 47
-47 48 -81 1 -36 4 -39 36 -48 19 -5 42 -15 51 -23 23 -21 48 -17 60 10 10 20
8 30 -10 55 -12 16 -21 33 -20 38 4 23 -4 32 -31 38 -19 4 -59 35 -106 81 -41
41 -82 74 -92 74 -9 0 -32 -10 -49 -21z"/>
<path d="M7134 1190 c-12 -5 -28 -17 -36 -28 -7 -11 -30 -30 -51 -42 -44 -26
-46 -47 -9 -87 36 -41 110 -145 119 -169 12 -33 83 -124 96 -124 20 0 37 22
37 46 0 11 -14 36 -31 54 l-32 33 24 18 c13 10 29 19 36 19 24 0 53 57 53 105
0 61 -23 98 -85 139 -57 38 -91 48 -121 36z m90 -85 c27 -25 56 -81 56 -109 0
-23 -29 -46 -60 -46 -20 0 -38 11 -64 40 -48 53 -55 84 -25 116 29 31 59 31
93 -1z"/>
<path d="M4939 1102 c-80 -46 -117 -155 -74 -214 33 -44 100 -72 151 -62 26 5
34 12 39 35 5 23 14 31 36 36 22 4 29 11 29 30 0 13 5 34 11 45 29 53 -49 159
-116 157 -16 0 -51 -12 -76 -27z m115 -54 c24 -33 21 -68 -5 -68 -29 0 -79 38
-79 60 0 35 61 41 84 8z m-65 -93 c48 -30 54 -60 15 -69 -53 -14 -108 42 -90
91 7 17 19 14 75 -22z"/>
<path d="M6893 1043 c-16 -6 -17 -65 -1 -81 20 -20 56 -14 74 13 15 23 15 27
0 50 -16 24 -43 31 -73 18z"/>
<path d="M5180 981 c-5 -11 -10 -26 -10 -34 0 -8 -8 -25 -19 -38 -10 -13 -22
-35 -26 -49 -4 -14 -21 -41 -36 -61 -35 -44 -36 -53 -6 -66 43 -20 65 2 112
115 l18 42 59 0 c54 0 58 -2 58 -23 0 -37 17 -45 81 -40 56 5 59 5 70 -21 20
-42 3 -50 -84 -36 -100 15 -124 8 -139 -41 -10 -36 -9 -41 13 -65 30 -32 54
-45 99 -55 19 -4 49 -13 67 -20 40 -16 63 0 63 45 0 17 7 44 15 60 24 46 36
112 26 139 -6 15 -29 34 -56 47 -38 19 -56 21 -101 16 -52 -6 -54 -5 -54 18 0
26 -45 66 -73 66 -9 0 -19 5 -22 10 -10 17 -44 11 -55 -9z m256 -282 c17 -28
-49 -52 -74 -27 -16 16 -15 45 1 51 15 5 65 -11 73 -24z"/>
<path d="M6707 899 l-38 -40 -38 30 c-48 38 -81 41 -81 7 0 -13 9 -35 20 -49
32 -40 26 -73 -18 -101 -87 -55 -80 -79 21 -74 l71 3 7 -38 c7 -45 20 -60 45
-55 15 2 20 14 22 47 4 51 22 70 67 71 58 1 75 10 75 41 0 25 -5 29 -37 35
-21 4 -44 11 -50 17 -18 13 -16 52 3 88 34 67 -12 79 -69 18z m-25 -161 c-6
-6 -15 -8 -19 -4 -4 4 -1 11 7 16 19 12 27 3 12 -12z"/>
<path d="M5633 918 c-6 -7 -15 -53 -22 -102 -7 -49 -19 -105 -27 -124 -8 -19
-14 -45 -14 -59 0 -13 -5 -33 -11 -44 -18 -35 -2 -54 62 -74 87 -26 113 -23
160 19 21 20 44 36 49 36 6 0 13 -14 17 -30 3 -18 18 -40 37 -53 27 -19 42
-22 106 -19 43 2 84 9 97 17 20 14 21 20 16 112 -8 145 -29 176 -120 176 -51
0 -59 -3 -85 -31 -35 -40 -35 -55 -3 -70 21 -10 27 -9 31 2 8 20 59 39 83 31
13 -4 21 -15 21 -30 0 -19 -7 -24 -40 -30 -21 -4 -48 -4 -60 0 -14 4 -20 2
-20 -8 0 -8 -14 -20 -31 -27 -37 -16 -51 -3 -47 45 2 41 -18 98 -45 123 -13
12 -39 22 -62 24 -43 3 -46 11 -31 69 12 42 -37 78 -61 47z m105 -195 c54 -46
23 -154 -45 -161 -27 -3 -34 2 -47 27 -21 39 -20 71 1 101 36 52 59 60 91 33z
m297 -143 c10 -16 -13 -47 -39 -54 -49 -12 -98 29 -69 57 10 11 101 8 108 -3z"/>
<path d="M6313 874 c-3 -9 -6 -35 -7 -57 l-1 -42 -49 -1 c-53 -1 -66 -11 -92
-71 -17 -38 -18 -94 -3 -146 7 -27 21 -44 50 -62 34 -22 48 -25 111 -22 108 6
110 12 72 236 -8 46 -14 101 -14 122 0 28 -5 41 -19 49 -27 14 -41 13 -48 -6z
m-3 -182 c31 -25 39 -99 13 -131 -44 -54 -113 -15 -113 63 0 76 49 109 100 68z"/>
<path d="M3427 2722 c-11 -2 -17 -11 -15 -20 4 -22 52 -23 56 -1 3 18 -14 27
-41 21z"/>
<path d="M3425 2650 c-22 -25 -13 -50 19 -50 32 0 39 12 26 44 -11 31 -21 32
-45 6z"/>
<path d="M3494 2535 c-9 -22 4 -35 37 -35 24 0 29 4 29 25 0 21 -5 25 -30 25
-18 0 -33 -6 -36 -15z"/>
<path d="M3361 2507 c-9 -11 -7 -19 7 -37 25 -31 55 -21 50 17 -3 32 -37 43
-57 20z"/>
</g>
</svg>
