<?xml version="1.0" standalone="no"?>
<!DOCTYPE svg PUBLIC "-//W3C//DTD SVG 20010904//EN"
 "http://www.w3.org/TR/2001/REC-SVG-20010904/DTD/svg10.dtd">
<svg version="1.0" xmlns="http://www.w3.org/2000/svg"
 width="150.000000pt" height="60.000000pt" viewBox="0 0 300.000000 121.000000"
 preserveAspectRatio="xMidYMid meet">
<metadata>
Created by potrace 1.10, written by Peter Selinger 2001-2011
</metadata>
<g transform="translate(0.000000,121.000000) scale(0.050000,-0.050000)"
fill="#567b65" stroke="none">
<path d="M2510 2082 c-302 -173 -503 -571 -432 -853 28 -110 28 -110 -161
-322 -116 -131 -323 -307 -361 -307 -61 0 12 154 133 280 58 62 125 150 149
196 92 180 170 676 113 723 -50 42 -96 -62 -303 -679 -105 -311 -136 -350
-376 -468 -269 -133 -534 -40 -378 133 38 41 12 74 -58 75 -69 0 -109 -183
-46 -207 17 -7 30 -30 30 -52 0 -98 387 -98 492 1 23 21 75 56 117 77 l74 38
-6 -103 c-14 -211 165 -100 536 333 l101 117 53 -102 c50 -95 51 -104 18 -115
-212 -73 -285 -129 -285 -217 l0 -64 140 -12 c305 -25 413 39 327 196 -18 33
-31 80 -30 105 2 31 -9 45 -34 45 -36 0 -143 165 -143 220 0 13 49 98 109 189
439 668 518 944 221 773z m32 -251 c-197 -369 -387 -643 -407 -589 -97 254
207 778 451 778 l58 0 -102 -189z m-642 -315 c0 -48 -88 -336 -131 -426 -50
-105 -171 -243 -141 -160 8 22 51 153 96 290 45 138 89 264 98 282 16 33 78
44 78 14z m426 -780 c52 -91 12 -116 -181 -116 -180 0 -183 23 -14 114 147 80
151 80 195 2z"/>
<path d="M4611 2054 c-43 -65 -174 -502 -233 -774 -54 -249 -119 -328 -375
-455 -325 -162 -583 -86 -583 172 0 55 4 58 114 69 432 45 636 403 322 566
-149 77 -456 -189 -456 -396 0 -20 -8 -36 -18 -36 -29 0 -102 166 -103 231 0
68 -47 139 -78 120 -46 -29 14 -240 110 -380 33 -49 49 -101 49 -157 1 -410
483 -472 886 -114 53 47 98 82 101 77 3 -4 16 -32 29 -62 39 -92 180 -123 291
-65 54 28 61 27 117 -20 74 -63 124 -63 248 0 56 29 101 41 105 29 16 -49 110
-139 144 -139 20 0 42 -9 49 -20 20 -32 84 -23 98 13 18 46 -24 87 -90 87 -66
0 -98 47 -98 145 0 108 -35 124 -117 52 -141 -125 -249 -145 -299 -57 -39 69
-81 76 -128 21 -128 -149 -339 -26 -267 157 214 539 337 1173 182 936z m-82
-544 c-101 -316 -114 -274 -17 55 43 146 81 245 84 221 4 -24 -27 -148 -67
-276z m-683 47 c222 -119 34 -377 -300 -412 -127 -13 -137 18 -58 185 90 191
244 288 358 227z"/>
<path d="M2633 1007 c-26 -27 -13 -148 18 -160 34 -13 109 45 109 85 0 45 -99
103 -127 75z"/>
<path d="M4550 518 c-55 -8 -211 -29 -346 -47 -290 -39 -391 -68 -400 -116
-12 -61 49 -60 248 3 140 46 250 66 399 75 158 10 210 20 219 43 18 48 -12 58
-120 42z"/>
<path d="M5331 476 c-45 -65 -39 -89 32 -114 95 -33 144 25 105 126 -18 47
-101 39 -137 -12z"/>
</g>
</svg>
