<?xml version="1.0" standalone="no"?>
<!DOCTYPE svg PUBLIC "-//W3C//DTD SVG 20010904//EN"
 "http://www.w3.org/TR/2001/REC-SVG-20010904/DTD/svg10.dtd">
<svg version="1.0" xmlns="http://www.w3.org/2000/svg"
 width="110.000000pt" height="110.000000pt" viewBox="0 0 300.000000 308.000000"
 preserveAspectRatio="xMidYMid meet">
<metadata>
Created by potrace 1.10, written by Peter Selinger 2001-2011
</metadata>
<g transform="translate(0.000000,308.000000) scale(0.050000,-0.050000)"
fill="#997db0" stroke="none">
<path d="M2790 5777 c-121 -17 -479 -110 -610 -157 -170 -62 -231 -89 -250
-110 -11 -12 -49 -34 -84 -48 -206 -84 -618 -466 -799 -742 -62 -93 -127 -192
-145 -220 -55 -82 -173 -362 -207 -490 -83 -309 -97 -411 -101 -763 -6 -566
28 -805 158 -1100 15 -35 28 -73 28 -84 0 -49 145 -297 312 -536 92 -131 449
-482 564 -554 41 -26 86 -61 100 -78 14 -17 54 -42 90 -57 35 -14 76 -42 90
-62 15 -20 39 -36 55 -36 16 0 76 -24 134 -54 58 -29 130 -66 161 -81 31 -16
70 -23 88 -16 52 20 -27 91 -102 91 -34 1 -84 18 -112 40 -27 22 -65 39 -83
40 -17 0 -43 13 -56 29 -14 16 -42 35 -63 42 -22 7 -60 32 -86 56 -25 23 -99
79 -164 123 -216 146 -526 483 -697 757 -22 35 -51 75 -65 89 -29 30 -66 111
-116 254 -20 55 -43 109 -51 120 -8 11 -22 56 -30 100 -8 44 -24 98 -35 120
-84 162 -80 1049 7 1361 21 78 39 165 39 194 0 29 9 58 19 65 11 6 35 63 55
126 19 63 40 119 46 124 6 6 68 105 138 220 213 351 670 820 799 820 10 0 30
14 44 31 105 126 832 330 1207 339 1627 35 2947 -1598 2564 -3175 -29 -118
-52 -228 -52 -245 0 -17 -9 -46 -20 -65 -10 -19 -49 -112 -86 -206 -120 -305
-441 -754 -647 -905 -42 -31 -149 -110 -237 -175 -88 -66 -170 -119 -183 -119
-12 0 -33 -13 -45 -28 -36 -43 -218 -127 -352 -163 -66 -17 -151 -41 -190 -52
-276 -81 -1099 -92 -1240 -17 -46 25 -120 26 -120 2 0 -43 97 -80 250 -93 44
-4 140 -17 213 -28 164 -25 334 -25 567 2 166 18 276 43 570 130 187 56 380
158 539 285 49 40 126 95 171 124 649 413 1102 1560 971 2460 -212 1458 -1563
2519 -2951 2315z"/>
<path d="M3085 5506 c-36 -7 -41 -16 -26 -43 10 -19 24 -91 32 -159 21 -185
79 -179 64 6 -8 104 -4 134 20 148 17 9 24 27 17 39 -15 23 -27 24 -107 9z"/>
<path d="M3298 5444 c-46 -120 -15 -273 57 -280 72 -7 92 33 25 50 -56 15 -50
63 10 86 28 10 50 24 50 30 0 6 -22 20 -50 30 -53 20 -68 58 -25 63 14 2 34 4
45 5 47 6 27 43 -30 55 -54 11 -65 6 -82 -39z"/>
<path d="M2869 5435 c30 -103 35 -190 11 -205 -34 -21 -53 17 -68 133 -10 69
-22 97 -45 97 -67 0 -1 -267 72 -290 103 -32 162 169 88 295 -23 39 -71 14
-58 -30z"/>
<path d="M2535 5426 c-43 -11 -44 -23 -5 -66 17 -19 41 -80 55 -137 13 -57 35
-103 49 -103 42 0 47 34 14 111 -20 47 -27 100 -19 142 13 70 0 78 -94 53z"/>
<path d="M3863 5366 c-30 -12 -103 -171 -103 -225 0 -45 62 -101 113 -101 92
0 161 254 83 309 -48 33 -51 34 -93 17z m69 -149 c-16 -100 -25 -117 -63 -117
-36 0 -40 141 -5 176 53 53 82 28 68 -59z"/>
<path d="M2360 5334 c0 -41 72 -234 96 -258 38 -38 50 33 18 97 -16 31 -35 86
-43 122 -14 62 -71 94 -71 39z"/>
<path d="M2187 5300 c-63 -25 -78 -61 -30 -73 26 -7 57 -50 86 -119 24 -59 56
-108 71 -108 37 0 33 28 -23 138 -29 57 -44 114 -38 139 13 46 1 50 -66 23z"/>
<path d="M4060 5127 c-33 -73 -60 -140 -60 -150 0 -37 55 -14 76 31 16 36 33
46 63 38 50 -13 55 29 8 64 -45 33 -15 76 45 65 65 -13 62 32 -3 62 -28 13
-55 23 -60 23 -5 0 -36 -60 -69 -133z"/>
<path d="M1935 5178 c-72 -41 -1 -180 77 -150 31 12 31 15 1 49 -41 45 -42 63
-3 63 17 0 30 14 30 30 0 34 -53 39 -105 8z"/>
<path d="M1770 5040 c-7 -11 10 -49 37 -85 27 -36 52 -82 56 -103 4 -20 26
-50 50 -65 81 -54 69 23 -25 151 -94 129 -99 133 -118 102z"/>
<path d="M2090 5000 c12 -55 9 -60 -40 -60 -65 0 -58 -47 8 -57 85 -12 138 93
78 153 -41 41 -60 27 -46 -36z"/>
<path d="M4390 4918 c-97 -132 -97 -143 -10 -188 75 -39 99 -27 165 82 67 110
68 129 9 185 -63 59 -62 59 -164 -79z m150 -2 c0 -48 -73 -136 -112 -136 -52
0 -47 40 14 109 72 82 98 89 98 27z"/>
<path d="M1660 4954 c0 -30 152 -241 181 -251 38 -13 18 51 -31 97 -27 26 -50
66 -50 89 0 48 -35 91 -74 91 -14 0 -26 -12 -26 -26z"/>
<path d="M2860 4939 c-539 -80 -1019 -435 -1273 -941 -26 -52 -47 -112 -47
-133 0 -22 -13 -51 -30 -65 -16 -14 -30 -41 -30 -62 0 -20 -15 -80 -32 -132
-99 -290 -66 -1036 50 -1152 12 -12 22 -38 22 -58 0 -73 203 -395 343 -545
935 -1001 2456 -721 2959 543 536 1349 -548 2755 -1962 2545z m702 -111 c350
-79 760 -361 987 -678 872 -1217 -47 -2937 -1508 -2823 -614 47 -1311 587
-1490 1153 -9 28 -29 91 -44 140 -53 166 -57 641 -8 860 24 105 48 222 54 260
6 39 23 80 38 91 15 12 45 67 66 122 179 454 694 830 1253 915 115 17 505 -6
652 -40z"/>
<path d="M1733 3482 c-39 -164 -42 -228 -9 -217 23 7 95 247 96 320 1 92 -56
24 -87 -103z"/>
<path d="M1894 3415 c-41 -197 -41 -195 -8 -195 25 0 95 241 94 325 0 102 -55
19 -86 -130z"/>
<path d="M2092 3516 c-78 -257 -75 -320 15 -342 107 -26 146 17 164 181 13
118 12 125 -33 142 -114 42 -138 46 -146 19z m121 -149 c-14 -102 -41 -147
-88 -147 -25 0 -28 18 -18 93 7 51 13 105 13 120 0 16 22 27 53 27 51 0 52 -3
40 -93z"/>
<path d="M2387 3456 c-6 -10 5 -36 24 -57 32 -35 32 -44 2 -137 -40 -121 -41
-162 -6 -162 16 0 38 40 53 95 13 52 29 111 34 131 5 20 32 45 60 56 29 10 45
25 38 33 -26 26 -193 59 -205 41z"/>
<path d="M2760 3362 c0 -9 14 -28 30 -42 38 -32 38 -102 -1 -195 -33 -80 -26
-125 19 -125 28 0 36 22 64 186 9 56 26 82 60 95 58 22 65 68 9 53 -22 -5 -55
2 -75 17 -41 31 -106 38 -106 11z"/>
<path d="M3040 3269 c-11 -29 -20 -71 -20 -94 0 -23 -10 -71 -23 -106 -13 -35
-17 -80 -10 -99 21 -55 73 2 73 82 0 37 15 98 33 136 33 69 27 132 -13 132
-11 0 -30 -23 -40 -51z"/>
<path d="M3211 3257 c-13 -38 -53 -239 -57 -287 -7 -68 35 -55 46 14 15 101
69 87 76 -20 9 -126 73 -112 77 16 1 50 14 119 29 155 23 55 22 69 -3 93 -44
42 -157 61 -168 29z m119 -77 c15 -48 -2 -80 -42 -80 -35 0 -57 48 -41 90 17
43 68 37 83 -10z"/>
<path d="M2560 3190 c0 -33 85 -61 120 -40 16 10 15 21 -1 42 -32 38 -119 37
-119 -2z"/>
<path d="M3513 3197 c-57 -208 -66 -316 -29 -353 32 -32 155 -31 164 1 48 181
71 300 61 316 -26 43 -47 12 -76 -114 -32 -139 -55 -180 -91 -158 -30 18 -28
86 6 197 24 79 24 96 0 116 -21 17 -29 16 -35 -5z"/>
<path d="M3835 3107 c-13 -20 -78 -265 -82 -306 -6 -62 58 -42 78 23 15 51 31
67 74 72 91 11 149 131 88 181 -36 31 -146 51 -158 30z m114 -65 c19 -32 -12
-82 -51 -82 -40 0 -46 16 -26 68 13 35 59 43 77 14z"/>
<path d="M4096 2940 c-68 -146 -87 -220 -59 -220 11 0 26 9 33 20 19 31 90 24
103 -10 24 -63 42 -25 55 117 22 249 -41 293 -132 93z m101 -62 c-10 -66 -77
-77 -77 -13 0 56 40 103 66 77 9 -9 14 -39 11 -64z"/>
<path d="M4349 2999 c-7 -12 2 -38 19 -57 30 -33 30 -48 3 -163 -30 -131 -27
-159 18 -159 18 0 35 48 51 142 19 111 33 145 62 153 63 16 43 62 -37 84 -93
26 -100 26 -116 0z"/>
<path d="M4608 2885 c-6 -30 -20 -86 -30 -125 -29 -116 -23 -184 16 -176 36 7
52 59 75 249 15 119 -36 162 -61 52z"/>
<path d="M1540 4834 c0 -43 213 -241 230 -214 9 15 -26 66 -92 132 -109 110
-138 128 -138 82z"/>
<path d="M4642 4778 c-21 -33 -56 -74 -80 -91 -23 -16 -42 -42 -42 -58 0 -48
57 -33 94 26 20 30 56 71 81 91 25 20 45 50 45 65 0 51 -59 31 -98 -33z"/>
<path d="M4723 4643 c-92 -86 -103 -134 -42 -199 50 -54 61 -54 105 -4 63 74
39 129 -29 67 -34 -30 -37 -30 -50 3 -10 26 3 51 42 84 59 51 121 54 121 6 0
-16 16 -32 35 -36 49 -10 46 65 -5 116 -56 56 -82 51 -177 -37z"/>
<path d="M1307 4550 c-8 -21 -2 -41 15 -51 15 -8 63 -43 106 -77 91 -72 113
-76 161 -23 44 49 24 90 -30 60 -40 -21 -88 -6 -143 46 -78 74 -95 81 -109 45z"/>
<path d="M4890 4420 c-109 -85 -132 -120 -79 -120 37 0 229 153 229 182 0 36
-52 14 -150 -62z"/>
<path d="M1180 4372 c0 -36 173 -232 203 -232 10 0 16 25 13 55 -5 44 3 56 39
61 67 10 55 36 -40 82 -128 62 -215 75 -215 34z"/>
<path d="M5076 4336 c-5 -40 -39 -70 -169 -149 -28 -17 -32 -29 -14 -47 18
-19 44 -10 116 39 61 43 105 59 131 51 48 -15 51 11 9 91 -36 70 -64 76 -73
15z"/>
<path d="M1080 4160 c0 -28 96 -70 115 -52 17 18 -50 72 -89 72 -14 0 -26 -9
-26 -20z"/>
<path d="M5130 4100 c-22 -9 -64 -18 -94 -19 -73 -2 -91 -39 -38 -80 27 -20
39 -45 32 -65 -29 -74 124 -4 248 116 42 40 -77 79 -148 48z m50 -58 c0 -31
-59 -67 -89 -55 -46 17 -14 73 41 73 26 0 48 -8 48 -18z"/>
<path d="M1052 4063 c-15 -24 170 -163 216 -163 57 0 34 41 -43 76 -41 19 -75
48 -75 64 0 34 -80 53 -98 23z"/>
<path d="M1220 4052 c0 -30 42 -52 102 -52 46 0 51 51 6 68 -54 21 -108 13
-108 -16z"/>
<path d="M971 3849 c-58 -89 12 -181 144 -189 28 -1 -8 46 -53 69 -54 28 -94
86 -74 106 5 5 55 -2 111 -17 106 -27 134 -76 76 -136 -20 -20 -15 -24 25 -19
51 7 91 137 42 137 -11 0 -53 23 -94 50 -93 63 -135 63 -177 -1z"/>
<path d="M5249 3882 c-10 -9 -53 -28 -94 -41 -91 -29 -102 -45 -85 -121 17
-77 70 -80 70 -5 0 55 31 78 155 115 25 7 45 26 45 41 0 32 -61 39 -91 11z"/>
<path d="M930 3599 c-6 -9 9 -30 34 -47 53 -34 201 -50 216 -24 13 24 -236 94
-250 71z"/>
<path d="M5382 3513 c-12 -16 -64 -33 -114 -38 -92 -11 -148 -42 -121 -69 8
-7 61 -4 119 8 68 14 117 15 141 2 49 -26 59 -11 43 63 -14 67 -33 76 -68 34z"/>
<path d="M880 3394 l0 -65 153 -5 c134 -4 149 -1 127 26 -14 17 -58 30 -103
30 -53 0 -88 13 -112 40 -48 57 -65 50 -65 -26z"/>
<path d="M5290 3282 c-120 -12 -120 -12 -120 -77 0 -74 37 -98 46 -30 9 58 56
58 86 0 l24 -44 20 44 c23 51 70 59 87 15 17 -46 47 -36 47 16 0 44 -35 98
-59 91 -6 -2 -65 -9 -131 -15z"/>
<path d="M1010 3190 c-11 -3 -45 -12 -76 -19 -92 -20 -67 -98 36 -113 44 -7
105 -19 135 -27 64 -18 76 18 20 62 -33 26 -33 28 0 54 59 46 -20 75 -115 43z
m60 -70 c0 -35 -66 -52 -94 -24 -11 11 -14 31 -6 43 20 33 100 17 100 -19z"/>
<path d="M5203 3028 c-62 -44 -54 -155 12 -164 52 -8 55 1 20 57 -34 55 11 83
105 66 89 -16 94 -21 64 -68 -34 -55 -30 -79 16 -79 45 0 71 73 50 140 -25 78
-183 107 -267 48z"/>
<path d="M911 2942 c-14 -23 38 -35 157 -33 60 1 102 11 107 26 10 30 -245 37
-264 7z"/>
<path d="M903 2834 c-18 -22 -17 -34 6 -54 40 -32 96 -10 87 35 -8 44 -63 55
-93 19z"/>
<path d="M1095 2826 c-56 -14 -40 -49 20 -42 30 3 53 15 52 26 -5 23 -26 28
-72 16z"/>
<path d="M5151 2762 c-6 -11 13 -31 44 -46 74 -36 72 -86 -4 -87 -66 -1 -93
-40 -37 -55 210 -56 229 -59 249 -39 15 15 3 31 -42 54 -74 39 -71 78 6 87 81
10 63 37 -42 63 -52 12 -110 27 -128 33 -19 5 -39 1 -46 -10z"/>
<path d="M1085 2680 c-35 -21 -77 -34 -91 -29 -40 16 -78 -40 -70 -105 7 -62
133 -86 152 -29 6 19 -3 24 -29 16 -47 -15 -97 15 -78 46 8 13 35 21 60 17 24
-3 60 10 79 29 19 19 48 35 63 35 16 0 29 14 29 30 0 41 -37 38 -115 -10z"/>
<path d="M1140 2550 c0 -23 14 -31 45 -26 25 3 45 15 45 26 0 11 -20 23 -45
26 -31 5 -45 -3 -45 -26z"/>
<path d="M5085 2475 c4 -14 36 -34 71 -44 91 -27 79 -55 -19 -47 -131 10 -120
-36 26 -102 70 -32 134 -54 142 -49 31 19 13 44 -50 69 l-65 26 85 7 c100 9
116 55 30 86 -30 10 -79 33 -108 49 -65 36 -123 39 -112 5z"/>
<path d="M1234 2448 c-7 -8 -14 -35 -14 -59 0 -51 -119 -79 -187 -45 -50 26
-64 6 -37 -54 24 -51 97 -68 135 -32 10 11 51 27 89 37 46 11 72 31 76 56 6
45 -40 118 -62 97z"/>
<path d="M4969 2191 c-57 -87 50 -210 184 -211 124 -1 115 148 -13 213 -114
58 -132 58 -171 -2z m157 -54 c89 -47 87 -110 -3 -87 -56 14 -123 65 -123 93
0 24 75 21 126 -6z"/>
<path d="M1252 2170 c-22 -16 -69 -35 -106 -42 -57 -11 -65 -19 -54 -55 22
-75 45 -82 88 -28 22 29 72 62 110 75 39 13 70 36 70 52 0 36 -59 35 -108 -2z"/>
<path d="M1355 2000 c-28 -21 -74 -48 -103 -59 -28 -11 -52 -29 -52 -41 0 -28
13 -25 71 12 27 18 64 27 82 20 37 -14 107 39 107 81 0 39 -47 33 -105 -13z"/>
<path d="M4836 1950 c-26 -57 -10 -86 30 -54 19 17 46 10 105 -26 155 -95 186
-31 32 68 -117 75 -137 77 -167 12z"/>
<path d="M1442 1899 c-38 -32 -53 -35 -76 -15 -24 19 -37 15 -67 -25 -67 -86
-26 -129 58 -61 29 24 83 57 119 73 36 17 60 39 54 50 -17 27 -33 23 -88 -22z"/>
<path d="M1480 1774 c-86 -52 -123 -98 -100 -122 19 -19 97 23 175 94 88 80
40 98 -75 28z"/>
<path d="M4713 1783 c-86 -95 132 -330 223 -239 26 26 32 134 9 167 -68 96
-179 130 -232 72z m173 -99 c66 -69 67 -84 8 -84 -62 0 -134 54 -134 101 0 57
63 49 126 -17z"/>
<path d="M4523 1574 c-54 -59 -53 -76 6 -119 55 -40 91 -13 50 37 -55 65 16
80 81 18 62 -59 73 -120 21 -120 -40 0 -50 -48 -12 -62 112 -43 135 105 34
211 -88 93 -119 99 -180 35z"/>
<path d="M1628 1511 c-22 -56 2 -101 55 -107 57 -7 86 36 66 99 -14 44 -105
51 -121 8z"/>
<path d="M4388 1452 c-11 -28 144 -252 175 -252 38 0 13 64 -66 169 -91 121
-93 124 -109 83z"/>
<path d="M1950 1400 c9 -27 -8 -69 -52 -130 -52 -73 -60 -96 -40 -115 26 -26
35 -18 128 114 20 28 53 51 75 51 56 0 48 31 -19 79 -74 52 -109 53 -92 1z"/>
<path d="M4224 1349 c-50 -35 -39 -78 16 -63 54 14 96 -18 65 -49 -38 -38 -30
-63 16 -51 51 13 74 -34 38 -77 -35 -42 -8 -60 51 -33 67 31 63 64 -24 194
-81 119 -94 126 -162 79z"/>
<path d="M2140 1295 c0 -14 -23 -69 -51 -122 -48 -90 -54 -171 -10 -144 33 21
142 239 132 265 -13 33 -71 34 -71 1z"/>
<path d="M4025 1247 c-59 -25 -28 -138 47 -174 70 -33 72 -36 38 -73 -40 -44
-9 -70 64 -56 81 15 47 141 -48 178 -52 19 -62 58 -15 58 47 0 27 69 -21 74
-22 2 -51 -1 -65 -7z"/>
<path d="M2251 1108 c-28 -62 -51 -125 -51 -140 0 -42 36 -33 50 12 22 69 70
48 70 -30 0 -86 27 -91 58 -10 12 33 32 87 45 121 66 178 -92 221 -172 47z"/>
<path d="M2512 1095 c-44 -215 -28 -275 73 -275 47 0 63 13 88 73 71 170 25
249 -48 83 -35 -79 -51 -98 -69 -80 -19 19 -18 30 0 48 36 36 31 196 -6 196
-16 0 -33 -20 -38 -45z"/>
<path d="M3492 1044 c-12 -20 19 -253 38 -283 36 -60 75 -20 62 64 -31 194
-67 272 -100 219z"/>
<path d="M2798 1035 c-19 -58 -50 -252 -43 -270 16 -43 46 -28 68 34 14 42 35
60 73 65 108 12 83 176 -26 176 -39 0 -71 -2 -72 -5z"/>
<path d="M3071 1017 c-43 -130 -66 -297 -41 -297 6 0 29 11 51 25 35 21 44 20
61 -10 61 -108 78 38 23 193 -36 99 -77 138 -94 89z"/>
<path d="M3272 978 c24 -27 42 -83 48 -155 15 -170 72 -161 64 10 -3 70 4 129
15 137 47 28 16 50 -72 50 l-93 0 38 -42z"/>
<path d="M3724 996 c-50 -50 -13 -136 58 -136 50 0 84 53 70 110 -14 55 -85
69 -128 26z"/>
</g>
</svg>
